<svg xmlns="http://www.w3.org/2000/svg" width="1600" height="900" viewBox="0 0 1600 900" role="img" aria-hidden="true">
  <defs>
    <linearGradient id="bg" x1="0%" y1="0%" x2="100%" y2="100%">
      <stop offset="0%" stop-color="#eef9ff"/>
      <stop offset="55%" stop-color="#ffffff"/>
      <stop offset="100%" stop-color="#f4fbff"/>
    </linearGradient>
    <linearGradient id="primaryOrb" x1="20%" y1="20%" x2="85%" y2="85%">
      <stop offset="0%" stop-color="#10a1e7"/>
      <stop offset="100%" stop-color="#0b7bd5"/>
    </linearGradient>
    <linearGradient id="accentOrb" x1="0%" y1="0%" x2="100%" y2="100%">
      <stop offset="0%" stop-color="#78c515"/>
      <stop offset="100%" stop-color="#63a60b"/>
    </linearGradient>
    <linearGradient id="line" x1="0%" y1="0%" x2="100%" y2="0%">
      <stop offset="0%" stop-color="#10a1e7"/>
      <stop offset="100%" stop-color="#78c515"/>
    </linearGradient>
    <filter id="shadowSoft" x="-10%" y="-10%" width="120%" height="120%">
      <feDropShadow dx="0" dy="18" stdDeviation="22" flood-color="#98b7cc" flood-opacity="0.18"/>
    </filter>
  </defs>
  <rect width="1600" height="900" fill="url(#bg)"/>
  <g opacity="0.55">
    <circle cx="1420" cy="110" r="210" fill="#d8efff"/>
    <circle cx="190" cy="770" r="250" fill="#ebf7da"/>
  </g>
  <g filter="url(#shadowSoft)">
    <rect x="128" y="106" width="1344" height="688" rx="54" fill="rgba(255,255,255,0.42)"/>
  </g>
  <rect x="176" y="154" width="1248" height="590" rx="42" fill="rgba(255,255,255,0.92)" stroke="rgba(17,52,76,0.08)" stroke-width="2"/><rect x="176" y="154" width="1248" height="78" rx="42" fill="rgba(236,246,252,0.96)"/><circle cx="248" cy="193" r="12" fill="rgba(17,52,76,0.14)"/><circle cx="286" cy="193" r="12" fill="rgba(5,150,239,0.18)"/><circle cx="324" cy="193" r="12" fill="rgba(120,197,21,0.2)"/><rect x="250" y="284" width="430" height="392" rx="34" fill="rgba(255,255,255,0.98)" stroke="rgba(17,52,76,0.08)" stroke-width="2"/><rect x="250" y="284" width="430" height="138" rx="34" fill="url(#primaryOrb)" opacity="0.88"/><rect x="734" y="284" width="266" height="178" rx="28" fill="rgba(241,248,252,0.96)" stroke="rgba(17,52,76,0.08)" stroke-width="2"/><rect x="1028" y="284" width="290" height="178" rx="28" fill="rgba(247,251,253,0.96)" stroke="rgba(17,52,76,0.08)" stroke-width="2"/><rect x="734" y="498" width="584" height="178" rx="28" fill="rgba(255,255,255,0.98)" stroke="rgba(17,52,76,0.08)" stroke-width="2"/><rect x="302" y="470" width="286" height="16" rx="8" fill="rgba(17,52,76,0.14)"/><rect x="302" y="512" width="214" height="16" rx="8" fill="rgba(17,52,76,0.14)"/><rect x="302" y="554" width="328" height="16" rx="8" fill="rgba(17,52,76,0.14)"/><rect x="302" y="596" width="266" height="16" rx="8" fill="rgba(17,52,76,0.14)"/><rect x="786" y="330" width="166" height="18" rx="9" fill="rgba(17,52,76,0.14)"/><rect x="786" y="368" width="132" height="14" rx="7" fill="rgba(5,150,239,0.18)"/><rect x="1080" y="330" width="166" height="18" rx="9" fill="rgba(17,52,76,0.14)"/><rect x="1080" y="368" width="132" height="14" rx="7" fill="rgba(5,150,239,0.18)"/><rect x="786" y="546" width="476" height="16" rx="8" fill="rgba(17,52,76,0.14)"/><rect x="786" y="586" width="430" height="16" rx="8" fill="rgba(120,197,21,0.18)"/><rect x="786" y="626" width="388" height="16" rx="8" fill="rgba(17,52,76,0.14)"/>
</svg>
