<svg xmlns="http://www.w3.org/2000/svg" width="1600" height="900" viewBox="0 0 1600 900" role="img" aria-hidden="true">
  <defs>
    <linearGradient id="bg" x1="0%" y1="0%" x2="100%" y2="100%">
      <stop offset="0%" stop-color="#eef9ff"/>
      <stop offset="55%" stop-color="#ffffff"/>
      <stop offset="100%" stop-color="#f4fbff"/>
    </linearGradient>
    <linearGradient id="panelGlow" x1="0%" y1="0%" x2="100%" y2="100%">
      <stop offset="0%" stop-color="rgba(255,255,255,0.92)"/>
      <stop offset="100%" stop-color="rgba(255,255,255,0.58)"/>
    </linearGradient>
    <linearGradient id="blueOrb" x1="20%" y1="20%" x2="85%" y2="85%">
      <stop offset="0%" stop-color="#2aa2ee"/>
      <stop offset="100%" stop-color="#0b79d1"/>
    </linearGradient>
    <linearGradient id="accent" x1="0%" y1="0%" x2="100%" y2="100%">
      <stop offset="0%" stop-color="#8bce2c"/>
      <stop offset="100%" stop-color="#63a60b"/>
    </linearGradient>
    <linearGradient id="line" x1="0%" y1="0%" x2="100%" y2="0%">
      <stop offset="0%" stop-color="#2aa2ee"/>
      <stop offset="100%" stop-color="#8bce2c"/>
    </linearGradient>
    <filter id="shadow" x="-10%" y="-10%" width="120%" height="120%">
      <feDropShadow dx="0" dy="24" stdDeviation="24" flood-color="#98b7cc" flood-opacity="0.25"/>
    </filter>
  </defs>
  <rect width="1600" height="900" fill="url(#bg)"/>
  <g opacity="0.55">
    <circle cx="1420" cy="110" r="210" fill="#d8efff"/>
    <circle cx="190" cy="770" r="250" fill="#ebf7da"/>
  </g>
  <g filter="url(#shadow)">
    <rect x="360" y="132" width="880" height="636" rx="40" fill="rgba(255,255,255,0.74)"/>
    <rect x="430" y="204" width="740" height="492" rx="34" fill="rgba(255,255,255,0.58)"/>
  </g>
  <g filter="url(#shadow)">
    <circle cx="800" cy="450" r="176" fill="url(#blueOrb)"/>
    <circle cx="800" cy="450" r="114" fill="rgba(255,255,255,0.92)"/>
    <circle cx="800" cy="450" r="56" fill="url(#accent)"/>
  </g>
  <g filter="url(#shadow)">
    <rect x="520" y="274" width="154" height="92" rx="24" fill="rgba(255,255,255,0.94)"/>
    <rect x="926" y="312" width="164" height="104" rx="24" fill="rgba(255,255,255,0.92)"/>
    <rect x="540" y="540" width="176" height="102" rx="24" fill="rgba(255,255,255,0.9)"/>
    <rect x="886" y="548" width="194" height="118" rx="24" fill="rgba(255,255,255,0.94)"/>
  </g>
  <g fill="none" stroke-linecap="round">
    <path d="M574 320 H628" stroke="url(#line)" stroke-width="12"/>
    <path d="M954 364 H1036" stroke="url(#line)" stroke-width="12"/>
    <path d="M572 592 H650" stroke="url(#line)" stroke-width="12"/>
    <path d="M924 598 H1022" stroke="url(#line)" stroke-width="12"/>
    <path d="M936 634 H998" stroke="#0b79d1" stroke-width="10" opacity="0.72"/>
  </g>
  <g opacity="0.7">
    <circle cx="800" cy="450" r="226" fill="none" stroke="rgba(255,255,255,0.46)" stroke-width="2"/>
    <circle cx="800" cy="450" r="266" fill="none" stroke="rgba(5,150,239,0.18)" stroke-width="2"/>
  </g>
</svg>
