<svg xmlns="http://www.w3.org/2000/svg" width="1600" height="900" viewBox="0 0 1600 900" role="img" aria-hidden="true">
  <defs>
    <linearGradient id="bg" x1="0%" y1="0%" x2="100%" y2="100%">
      <stop offset="0%" stop-color="#edf8d8"/>
      <stop offset="55%" stop-color="#ffffff"/>
      <stop offset="100%" stop-color="#f4fbff"/>
    </linearGradient>
    <linearGradient id="primaryOrb" x1="20%" y1="20%" x2="85%" y2="85%">
      <stop offset="0%" stop-color="#2e8de4"/>
      <stop offset="100%" stop-color="#0c79d6"/>
    </linearGradient>
    <linearGradient id="accentOrb" x1="0%" y1="0%" x2="100%" y2="100%">
      <stop offset="0%" stop-color="#78c515"/>
      <stop offset="100%" stop-color="#63a60b"/>
    </linearGradient>
    <linearGradient id="line" x1="0%" y1="0%" x2="100%" y2="0%">
      <stop offset="0%" stop-color="#2e8de4"/>
      <stop offset="100%" stop-color="#78c515"/>
    </linearGradient>
    <filter id="shadowSoft" x="-10%" y="-10%" width="120%" height="120%">
      <feDropShadow dx="0" dy="18" stdDeviation="22" flood-color="#98b7cc" flood-opacity="0.18"/>
    </filter>
  </defs>
  <rect width="1600" height="900" fill="url(#bg)"/>
  <g opacity="0.55">
    <circle cx="1420" cy="110" r="210" fill="#d8efff"/>
    <circle cx="190" cy="770" r="250" fill="#ebf7da"/>
  </g>
  <g filter="url(#shadowSoft)">
    <rect x="128" y="106" width="1344" height="688" rx="54" fill="rgba(255,255,255,0.42)"/>
  </g>
  <rect x="180" y="156" width="1240" height="588" rx="42" fill="rgba(255,255,255,0.92)" stroke="rgba(17,52,76,0.08)" stroke-width="2"/><rect x="238" y="220" width="310" height="214" rx="30" fill="rgba(247,251,253,0.96)" stroke="rgba(17,52,76,0.08)" stroke-width="2"/><rect x="586" y="220" width="310" height="214" rx="30" fill="rgba(236,248,255,0.96)" stroke="rgba(17,52,76,0.08)" stroke-width="2"/><rect x="934" y="220" width="428" height="214" rx="30" fill="rgba(255,255,255,0.98)" stroke="rgba(17,52,76,0.08)" stroke-width="2"/><rect x="238" y="470" width="524" height="214" rx="30" fill="rgba(255,255,255,0.98)" stroke="rgba(17,52,76,0.08)" stroke-width="2"/><rect x="800" y="470" width="562" height="214" rx="30" fill="rgba(247,251,253,0.96)" stroke="rgba(17,52,76,0.08)" stroke-width="2"/><path d="M436 328h260M784 328h278M392 372v116h108M740 372v116h-108M1148 372v116h-64" fill="none" stroke="url(#line)" stroke-width="10" stroke-linecap="round" stroke-linejoin="round"/><circle cx="392" cy="328" r="44" fill="url(#primaryOrb)" opacity="0.92"/><circle cx="740" cy="328" r="44" fill="url(#primaryOrb)" opacity="0.92"/><circle cx="1148" cy="328" r="44" fill="url(#primaryOrb)" opacity="0.92"/><circle cx="500" cy="578" r="44" fill="url(#primaryOrb)" opacity="0.92"/><circle cx="1084" cy="578" r="44" fill="url(#primaryOrb)" opacity="0.92"/><rect x="308" y="278" width="148" height="18" rx="9" fill="rgba(17,52,76,0.14)"/><rect x="308" y="314" width="112" height="14" rx="7" fill="rgba(5,150,239,0.18)"/><rect x="656" y="278" width="148" height="18" rx="9" fill="rgba(17,52,76,0.14)"/><rect x="656" y="314" width="112" height="14" rx="7" fill="rgba(5,150,239,0.18)"/><rect x="1026" y="278" width="210" height="18" rx="9" fill="rgba(17,52,76,0.14)"/><rect x="1026" y="314" width="148" height="14" rx="7" fill="rgba(5,150,239,0.18)"/><rect x="308" y="528" width="310" height="18" rx="9" fill="rgba(17,52,76,0.14)"/><rect x="308" y="564" width="248" height="14" rx="7" fill="rgba(5,150,239,0.18)"/><rect x="872" y="528" width="346" height="18" rx="9" fill="rgba(17,52,76,0.14)"/><rect x="872" y="564" width="284" height="14" rx="7" fill="rgba(5,150,239,0.18)"/>
</svg>
